<svg width="96" height="96" xmlns="http://www.w3.org/2000/svg" xmlns:xlink="http://www.w3.org/1999/xlink" xml:space="preserve" overflow="hidden"><g transform="translate(-305 -440)"><path d="M353 450C332.007 449.994 314.984 467.007 314.978 488 314.972 508.993 331.985 526.016 352.978 526.022 373.971 526.028 390.994 509.015 391 488.022 391 488.018 391 488.014 391 488.01 391.011 467.029 374.011 450.011 353.03 450 353.02 450 353.01 450 353 450ZM353 524.021C333.112 524.027 316.984 507.909 316.978 488.021 316.972 468.133 333.09 452.005 352.978 451.999 372.866 451.993 388.994 468.111 389 487.999 389 488.004 389 488.008 389 488.013 388.98 507.889 372.876 523.998 353 524.024Z"/><path d="M346.5 500.086 334 487.586 332.586 489 346.5 502.914 375.914 473.5 374.5 472.086 346.5 500.086Z"/></g></svg>